# xmcd CD database file
#
# Track frame offsets:
#	150
#	14257
#	27240
#	43057
#	55615
#	73025
#	87185
#	101897
#	118027
#	129545
#	146495
#	165982
#	178472
#	187327
#	203087
#	213677
#	230427
#	237837
#
# Disc length: 3426 seconds
#
# Revision: 0
# Processed by: cddbd v1.5.2PL0 Copyright (c) Steve Scherf et al.
# Submitted via: CDex 1.70
#
DISCID=080d6012
DTITLE=Tex Morton - Yodelling Cowboy
DYEAR=1994
DGENRE=Country
TTITLE0=They Cut Down The Old Pine Tree
TTITLE1=Sing You Cowboy
TTITLE2=Daddy And Home
TTITLE3=Everything But You
TTITLE4=On The Gundagai Line
TTITLE5=Frankie And Johnny
TTITLE6=Let The Rest Of The World Go By
TTITLE7=The Ned Kelly Song
TTITLE8=Yodelling Cowboy
TTITLE9=My Old Pal
TTITLE10=Billy Brink, The Shearer
TTITLE11=Carry Me Back To The Lone Prairie
TTITLE12=Move Along Baldy
TTITLE13=I've Only Loved Three Women
TTITLE14=Bonny Blue Eyes
TTITLE15=The Tramp's Mother
TTITLE16=Goin' Back To  Texas
TTITLE17=Freight Train Blues
EXTD=YEAR: 1994
EXTT0=
EXTT1=
EXTT2=
EXTT3=
EXTT4=
EXTT5=
EXTT6=
EXTT7=
EXTT8=
EXTT9=
EXTT10=
EXTT11=
EXTT12=
EXTT13=
EXTT14=
EXTT15=
EXTT16=
EXTT17=
PLAYORDER=
